<svg xmlns="http://www.w3.org/2000/svg" xmlns:xlink="http://www.w3.org/1999/xlink" id="Vectors" viewBox="0 0 64 64"><defs><style>.cls-1{fill:url(#p2p_linear-gradient)}.cls-2{fill:url(#p2p_linear-gradient-2)}.cls-3{fill:url(#p2p_linear-gradient-3)}.cls-4{fill:url(#p2p_linear-gradient-4)}.cls-5{fill:none;stroke:#c19765;stroke-miterlimit:10;stroke-width:.25px}.cls-6{fill:url(#p2p_linear-gradient-5)}</style><linearGradient id="p2p_linear-gradient" x1="32" x2="32" y1="48.02" y2="8.71" gradientUnits="userSpaceOnUse"><stop offset="0" stop-color="#323233"/><stop offset=".32" stop-color="#2f2f30"/><stop offset=".57" stop-color="#252526"/><stop offset=".8" stop-color="#151515"/><stop offset="1"/></linearGradient><linearGradient id="p2p_linear-gradient-2" x1="18" x2="46" y1="23" y2="23" gradientTransform="translate(64 46) rotate(180)" gradientUnits="userSpaceOnUse"><stop offset="0" stop-opacity="0"/><stop offset="1"/></linearGradient><linearGradient id="p2p_linear-gradient-3" y1="41" y2="41" gradientTransform="matrix(1, 0, 0, 1, 0, 0)" xlink:href="#p2p_linear-gradient-2"/><linearGradient id="p2p_linear-gradient-4" x1="5" x2="23" y1="23" y2="23" gradientUnits="userSpaceOnUse"><stop offset="0" stop-color="#c19765"/><stop offset="1" stop-color="#9a6b3a"/></linearGradient><linearGradient id="p2p_linear-gradient-5" x1="7" x2="25" y1="25" y2="25" gradientTransform="translate(66 66) rotate(180)" xlink:href="#p2p_linear-gradient-4"/></defs><rect width="36" height="48" x="14" y="8" class="cls-1" transform="translate(64 64) rotate(180)"/><path d="M18,28H46v2H18Zm0-4H46V22H18Zm0-6H46V16H18Z" class="cls-2"/><path d="M46,36H18V34H46Zm0,4H18v2H46Zm0,6H18v2H46Z" class="cls-3"/><circle cx="14" cy="23" r="9" class="cls-4"/><circle cx="14" cy="23" r="9" class="cls-5"/><circle cx="50" cy="41" r="9" class="cls-6"/><circle cx="50" cy="41" r="9" class="cls-5"/></svg>