<svg xmlns="http://www.w3.org/2000/svg" xmlns:xlink="http://www.w3.org/1999/xlink" id="Vectors" viewBox="0 0 64 64"><defs><style>.cls-1{fill:url(#restrictions-linear-gradient)}.cls-2{fill:url(#restrictions-linear-gradient-2)}.cls-3{fill:url(#restrictions-linear-gradient-3)}.cls-4{fill:url(#restrictions-linear-gradient-4)}.cls-5{fill:#c19765}.cls-6{fill:url(#restrictions-linear-gradient-5)}.cls-7{fill:url(#restrictions-linear-gradient-6)}.cls-8{fill:url(#restrictions-linear-gradient-7)}.cls-9{fill:url(#restrictions-linear-gradient-8)}.cls-10{fill:url(#restrictions-linear-gradient-9)}</style><linearGradient id="restrictions-linear-gradient" x1="18" x2="54" y1="38" y2="38" gradientTransform="translate(-3 73) rotate(-90)" gradientUnits="userSpaceOnUse"><stop offset="0" stop-color="#323233"/><stop offset=".2" stop-color="#1d1d1e"/><stop offset=".43" stop-color="#0d0d0d"/><stop offset=".68" stop-color="#030303"/><stop offset="1"/></linearGradient><linearGradient id="restrictions-linear-gradient-2" x1="18" x2="54" y1="20" y2="20" gradientTransform="translate(33 73) rotate(-90)" gradientUnits="userSpaceOnUse"><stop offset="0"/><stop offset=".32" stop-color="#030303"/><stop offset=".57" stop-color="#0d0d0d"/><stop offset=".8" stop-color="#1d1d1e"/><stop offset="1" stop-color="#323233"/></linearGradient><linearGradient id="restrictions-linear-gradient-3" x1="-95.05" x2="-83.05" y1="56.65" y2="56.65" gradientTransform="translate(-21.65 -34.05) rotate(-90)" gradientUnits="userSpaceOnUse"><stop offset="0"/><stop offset="1" stop-color="#323233"/></linearGradient><linearGradient id="restrictions-linear-gradient-4" x1="-117.05" x2="-105.05" y1="40.65" y2="40.65" gradientTransform="translate(-58.05 95.65) rotate(180)" gradientUnits="userSpaceOnUse"><stop offset="0" stop-color="#c19765"/><stop offset="1" stop-color="#9a6b3a"/></linearGradient><linearGradient id="restrictions-linear-gradient-5" x1="-99.05" x2="-87.05" y1="76.65" y2="76.65" xlink:href="#restrictions-linear-gradient-4"/><linearGradient id="restrictions-linear-gradient-6" x1="-118.47" x2="-106.47" y1="76.06" y2="76.06" gradientTransform="translate(129.06 131.47) rotate(90)" xlink:href="#restrictions-linear-gradient-3"/><linearGradient id="restrictions-linear-gradient-7" x1="18" x2="54" gradientTransform="matrix(0, 1, 1, 0, -3, 1)" xlink:href="#restrictions-linear-gradient-2"/><linearGradient id="restrictions-linear-gradient-8" x1="-117.05" x2="-105.05" y1="40.65" y2="40.65" gradientTransform="matrix(1, 0, 0, -1, 128.05, 95.65)" xlink:href="#restrictions-linear-gradient-4"/><linearGradient id="restrictions-linear-gradient-9" x1="-118.47" x2="-106.47" y1="76.06" y2="76.06" gradientTransform="matrix(0, 1, 1, 0, -59.06, 131.47)" xlink:href="#restrictions-linear-gradient-3"/></defs><rect width="12" height="36" x="29" y="19" class="cls-1"/><rect width="12" height="36" x="47" y="19" class="cls-2"/><circle cx="35" cy="55" r="6" class="cls-3"/><circle cx="53" cy="55" r="6" class="cls-4"/><path d="M53,49.25A5.75,5.75,0,1,1,47.25,55,5.76,5.76,0,0,1,53,49.25M53,49a6,6,0,1,0,6,6,6,6,0,0,0-6-6Z" class="cls-5"/><circle cx="35" cy="19" r="6" class="cls-6"/><path d="M35,13.25A5.75,5.75,0,1,1,29.25,19,5.76,5.76,0,0,1,35,13.25M35,13a6,6,0,1,0,6,6,6,6,0,0,0-6-6Z" class="cls-5"/><circle cx="53" cy="19" r="6" class="cls-7"/><rect width="12" height="36" x="11" y="19" class="cls-8" transform="translate(34 74) rotate(180)"/><circle cx="17" cy="55" r="6" class="cls-9"/><path d="M17,49.25A5.75,5.75,0,1,1,11.25,55,5.76,5.76,0,0,1,17,49.25M17,49a6,6,0,1,0,6,6,6,6,0,0,0-6-6Z" class="cls-5"/><circle cx="17" cy="19" r="6" class="cls-10"/></svg>